<svg xmlns="http://www.w3.org/2000/svg" viewBox="0 0 240 240"><defs><style>.cls-1{fill:#fff;}</style></defs><title>favicon</title><g id="Layer_2" data-name="Layer 2"><g id="레이어_1" data-name="레이어 1"><circle class="cls-1" cx="120" cy="120" r="120"/><path d="M99.39,107.38v23.09H90.15V107.38c0-6.38-4.65-11.55-10.39-11.55S69.37,102,69.37,109.69v20.78H60.13V107.38c0-6.38-4.65-11.55-10.39-11.55S39.35,102,39.35,109.69v20.78H30.11V88.9h9.16a9.07,9.07,0,0,1-.39,1.79L36.46,98l1.17.39,1.34-4a9.14,9.14,0,0,1,6.31-6,17.76,17.76,0,0,1,4.46-.57,19.62,19.62,0,0,1,15.34,7.38,18.77,18.77,0,0,1,14.68-7.38A19.63,19.63,0,0,1,99.39,107.38Z"/><path d="M155.2,109.69c0,12.11-11.11,21.93-24.82,21.93s-24.82-9.82-24.82-21.93,11.11-21.94,24.82-21.94S155.2,97.57,155.2,109.69Zm-9.24,0c0-7.66-7-13.86-15.58-13.86s-15.59,6.2-15.59,13.86,7,13.85,15.59,13.85S146,117.34,146,109.69Z"/><path d="M209.89,88.9v41.57h-9.24V109.69c0-7.66-7-13.86-15.59-13.86s-15.58,6.2-15.58,13.86,4.65,13.85,10.39,13.85,10.39-5.17,10.39-11.55h9.24a19.63,19.63,0,0,1-19.63,19.63c-10.84,0-19.63-9.82-19.63-21.93s11.12-21.94,24.82-21.94A27.4,27.4,0,0,1,196,90a9.27,9.27,0,0,1,4.78,4.73l1.63,3.67,1.12-.5-2.07-4.67a9.16,9.16,0,0,1-.8-3.75V88.9Z"/><polygon points="31.28 141.73 30.11 141.73 30.11 157.98 32.86 157.98 32.86 151.14 40.28 151.14 40.28 148.84 32.86 148.84 32.86 144.08 41.02 144.08 41.02 141.73 32.86 141.73 31.28 141.73"/><path d="M71.73,156.07c-.1-.42-.2-.84-.29-1.26-.15-.72-.27-1.24-.36-1.57a3.75,3.75,0,0,0-1.22-2.19,3.79,3.79,0,0,0-.92-.47l-.37-.09a5.59,5.59,0,0,0,2.38-1.3,4,4,0,0,0,1.14-3,4.25,4.25,0,0,0-.58-2.14,4.42,4.42,0,0,0-1.73-1.67,5.63,5.63,0,0,0-2.74-.64H59.26V158H62v-6.26h4.16a2.75,2.75,0,0,1,1.15.19,2,2,0,0,1,.7.78,3.94,3.94,0,0,1,.39,1c.09.32.17.74.26,1.26s.19,1.05.25,1.27a6.45,6.45,0,0,0,.43,1.39.68.68,0,0,0,.64.4h2.57a2.61,2.61,0,0,1-.49-.83A8.23,8.23,0,0,1,71.73,156.07ZM62,149.42v-5.34h4.54a3.22,3.22,0,0,1,2,.55,2.09,2.09,0,0,1,.71,1.78,3.12,3.12,0,0,1-.41,1.68,2.54,2.54,0,0,1-1,1,3,3,0,0,1-1.33.32Z"/><rect x="89.62" y="141.73" width="2.75" height="16.25"/><polygon points="110.59 141.73 109.43 141.73 109.43 157.98 110.59 157.98 112.18 157.98 120.63 157.98 120.63 155.63 112.18 155.63 112.18 150.65 119.78 150.65 119.78 148.35 112.18 148.35 112.18 144.08 120.63 144.08 120.63 141.73 112.18 141.73 110.59 141.73"/><polygon points="148.26 150.72 148.26 154.5 148.19 154.5 146.2 150.63 141.28 141.73 137.69 141.73 137.69 157.98 140.32 157.98 140.32 149.02 140.32 145.22 140.39 145.22 142.38 149.09 147.29 157.98 150.89 157.98 150.89 141.73 148.26 141.73 148.26 150.72"/><path d="M178.48,142.63a7.85,7.85,0,0,0-3.85-.9H168V158h6.35a7.51,7.51,0,0,0,4-1A6.92,6.92,0,0,0,181,154a10.1,10.1,0,0,0,.94-4.48,9.13,9.13,0,0,0-.9-4.24A6,6,0,0,0,178.48,142.63Zm-.74,11.62a4.4,4.4,0,0,1-3.28,1.38H170.7V144.08h3.76a4.64,4.64,0,0,1,3.34,1.23c.85.82,1.28,2.28,1.28,4.38S178.63,153.33,177.74,154.25Z"/><path d="M209.14,150.74a4.67,4.67,0,0,0-1.8-1.43,19.16,19.16,0,0,0-2.71-.92c-.84-.23-1.51-.45-2-.64a3.41,3.41,0,0,1-1.2-.8,1.8,1.8,0,0,1-.48-1.3,1.46,1.46,0,0,1,.75-1.39,4.89,4.89,0,0,1,2.31-.42,4.55,4.55,0,0,1,1.65.25,2.07,2.07,0,0,1,1,.83,3.12,3.12,0,0,1,.4,1.53l2.64-.38a4.42,4.42,0,0,0-1.66-3.42,6.34,6.34,0,0,0-4-1.18,8.21,8.21,0,0,0-3,.5,4.4,4.4,0,0,0-2.07,1.54,4.22,4.22,0,0,0-.76,2.58,3.71,3.71,0,0,0,.69,2.37,4.22,4.22,0,0,0,1.68,1.29,19.88,19.88,0,0,0,2.63.83,20.15,20.15,0,0,1,2.13.64,3.39,3.39,0,0,1,1.3.87,2.16,2.16,0,0,1,.53,1.51,1.88,1.88,0,0,1-.88,1.76,4.91,4.91,0,0,1-2.49.52,5.36,5.36,0,0,1-2-.29,1.82,1.82,0,0,1-1-.84,3.3,3.3,0,0,1-.34-1.42l-2.73.34a4.42,4.42,0,0,0,1.59,3.39,6.65,6.65,0,0,0,4.29,1.19,7.75,7.75,0,0,0,4.49-1.19,4.21,4.21,0,0,0,1.75-3.75A4.07,4.07,0,0,0,209.14,150.74Z"/></g></g></svg>