<svg xmlns="http://www.w3.org/2000/svg" viewBox="0 0 303.9 119.18"><title>logo svg</title><g id="Layer_2" data-name="Layer 2"><g id="레이어_1" data-name="레이어 1"><path d="M117.1,33.18v39H101.49v-39c0-10.78-7.87-19.52-17.57-19.52S66.36,24.15,66.36,37.08V72.21H50.74v-39c0-10.78-7.86-19.52-17.56-19.52S15.61,24.15,15.61,37.08V72.21H0V2H15.48a15,15,0,0,1-.67,3L10.72,17.23l2,.66L15,11.09A15.41,15.41,0,0,1,25.64,1a29.41,29.41,0,0,1,7.54-1A33.12,33.12,0,0,1,59.1,12.48C65.18,4.83,74,0,83.92,0A33.17,33.17,0,0,1,117.1,33.18Z"/><path d="M211.46,37.08c0,20.48-18.79,37.08-42,37.08s-42-16.6-42-37.08S146.32,0,169.49,0,211.46,16.6,211.46,37.08Zm-15.62,0c0-12.93-11.79-23.42-26.35-23.42s-26.34,10.49-26.34,23.42S154.94,60.5,169.49,60.5,195.84,50,195.84,37.08Z"/><path d="M303.9,2V72.21H288.28V37.08c0-12.93-11.79-23.42-26.35-23.42s-26.34,10.49-26.34,23.42,7.86,23.42,17.57,23.42S270.72,51.76,270.72,41h15.61a33.17,33.17,0,0,1-33.17,33.18c-18.33,0-33.19-16.6-33.19-37.08S238.76,0,261.93,0a46.34,46.34,0,0,1,18.48,3.79,15.66,15.66,0,0,1,8.07,8L291.24,18l1.9-.85-3.51-7.89a15.6,15.6,0,0,1-1.35-6.34V2Z"/><polygon points="1.97 91.26 0 91.26 0 118.72 4.65 118.72 4.65 107.16 17.19 107.16 17.19 103.27 4.65 103.27 4.65 95.22 18.44 95.22 18.44 91.26 4.65 91.26 1.97 91.26"/><path d="M70.35,115.49c-.17-.72-.34-1.43-.49-2.13-.25-1.21-.45-2.09-.6-2.65a6.35,6.35,0,0,0-2.08-3.7,5.8,5.8,0,0,0-1.55-.79,3,3,0,0,0-.62-.16,9.36,9.36,0,0,0,4-2.2A6.74,6.74,0,0,0,71,98.78a7.32,7.32,0,0,0-3.91-6.45,9.51,9.51,0,0,0-4.63-1.07H49.27v27.46h4.65V108.14h7a4.31,4.31,0,0,1,1.94.33,3.06,3.06,0,0,1,1.19,1.3,6.41,6.41,0,0,1,.66,1.64c.14.54.29,1.25.44,2.14.17,1,.31,1.77.41,2.15a10.77,10.77,0,0,0,.74,2.34,1.15,1.15,0,0,0,1.08.68h4.34a4.37,4.37,0,0,1-.83-1.4A14.41,14.41,0,0,1,70.35,115.49ZM53.92,104.25v-9h7.67a5.48,5.48,0,0,1,3.4.93,3.54,3.54,0,0,1,1.21,3,5.39,5.39,0,0,1-.7,2.86,4.52,4.52,0,0,1-1.78,1.7,4.9,4.9,0,0,1-2.24.54Z"/><rect x="100.59" y="91.26" width="4.65" height="27.46"/><polygon points="136.04 91.26 134.08 91.26 134.08 118.72 136.04 118.72 138.72 118.72 153 118.72 153 114.75 138.72 114.75 138.72 106.33 151.57 106.33 151.57 102.44 138.72 102.44 138.72 95.22 153 95.22 153 91.26 138.72 91.26 136.04 91.26"/><polygon points="199.71 106.44 199.71 112.83 199.6 112.83 196.24 106.29 187.93 91.26 181.84 91.26 181.84 118.72 186.3 118.72 186.3 103.57 186.3 97.15 186.41 97.15 189.78 103.69 198.09 118.72 204.17 118.72 204.17 91.26 199.71 91.26 199.71 106.44"/><path d="M250.8,92.77a13.28,13.28,0,0,0-6.5-1.51H233v27.46h10.73a12.82,12.82,0,0,0,6.78-1.75,11.81,11.81,0,0,0,4.48-5,17.1,17.1,0,0,0,1.58-7.58,15.51,15.51,0,0,0-1.51-7.17A10.29,10.29,0,0,0,250.8,92.77Zm-1.24,19.64a7.45,7.45,0,0,1-5.56,2.34h-6.34V95.22H244a7.86,7.86,0,0,1,5.65,2.08q2.17,2.08,2.17,7.41T249.56,112.41Z"/><path d="M302.63,106.48a8,8,0,0,0-3-2.42,32.56,32.56,0,0,0-4.57-1.54c-1.44-.41-2.56-.77-3.38-1.1a5.8,5.8,0,0,1-2-1.34,3.08,3.08,0,0,1-.82-2.21,2.5,2.5,0,0,1,1.27-2.34,8.18,8.18,0,0,1,3.91-.72,7.7,7.7,0,0,1,2.8.43,3.5,3.5,0,0,1,1.7,1.4,5.35,5.35,0,0,1,.68,2.59l4.45-.64a7.49,7.49,0,0,0-2.79-5.78,10.73,10.73,0,0,0-6.8-2,14.19,14.19,0,0,0-5.08.85,7.62,7.62,0,0,0-3.5,2.61,7.24,7.24,0,0,0-1.28,4.36,6.28,6.28,0,0,0,1.17,4,7,7,0,0,0,2.83,2.17,33.1,33.1,0,0,0,4.46,1.42,30.5,30.5,0,0,1,3.59,1.07,5.82,5.82,0,0,1,2.21,1.48,3.62,3.62,0,0,1,.89,2.55,3.16,3.16,0,0,1-1.5,3,8.27,8.27,0,0,1-4.21.89,8.82,8.82,0,0,1-3.3-.49,3.12,3.12,0,0,1-1.68-1.42,5.65,5.65,0,0,1-.57-2.4l-4.61.57a7.46,7.46,0,0,0,2.68,5.74c1.67,1.34,4.08,2,7.26,2a13.22,13.22,0,0,0,7.59-2c2-1.33,2.95-3.45,2.95-6.34A6.9,6.9,0,0,0,302.63,106.48Z"/></g></g></svg>