<svg xmlns="http://www.w3.org/2000/svg" viewBox="0 0 85 35"><title>logo svg_1</title><g id="Layer_2" data-name="Layer 2"><g id="레이어_1" data-name="레이어 1"><path d="M32.75,9.74V21.21H28.39V9.74c0-3.16-2.2-5.73-4.92-5.73s-4.91,3.08-4.91,6.88V21.21H14.19V9.74C14.19,6.58,12,4,9.28,4S4.37,7.09,4.37,10.89V21.21H0V.57H4.33a5.42,5.42,0,0,1-.19.89L3,5.06l.55.2.64-2a4.41,4.41,0,0,1,3-3A8.2,8.2,0,0,1,9.28,0a9.08,9.08,0,0,1,7.25,3.67A8.73,8.73,0,0,1,23.47,0,9.51,9.51,0,0,1,32.75,9.74Z"/><path d="M59.14,10.89c0,6-5.25,10.89-11.73,10.89S35.67,16.9,35.67,10.89,40.93,0,47.41,0,59.14,4.87,59.14,10.89Zm-4.36,0a7.39,7.39,0,0,0-14.74,0,7.39,7.39,0,0,0,14.74,0Z"/><path d="M85,.57V21.21H80.63V10.89a7.39,7.39,0,0,0-14.74,0c0,3.8,2.2,6.88,4.92,6.88S75.72,15.2,75.72,12h4.37a9.52,9.52,0,0,1-9.28,9.74c-5.13,0-9.28-4.88-9.28-10.89S66.78,0,73.26,0a12.45,12.45,0,0,1,5.17,1.11,4.51,4.51,0,0,1,2.26,2.35l.77,1.82L82,5,81,2.72A4.81,4.81,0,0,1,80.63.85V.57Z"/><polygon points="0.55 26.8 0 26.8 0 34.87 1.3 34.87 1.3 31.47 4.81 31.47 4.81 30.33 1.3 30.33 1.3 27.97 5.16 27.97 5.16 26.8 1.3 26.8 0.55 26.8"/><path d="M19.68,33.92c-.05-.21-.1-.42-.14-.63s-.13-.61-.17-.78a1.84,1.84,0,0,0-.58-1.08,1.64,1.64,0,0,0-.43-.24l-.18,0a2.57,2.57,0,0,0,1.13-.65A2,2,0,0,0,19.85,29a2.17,2.17,0,0,0-.28-1.07,2,2,0,0,0-.82-.82,2.52,2.52,0,0,0-1.29-.32H13.78v8.07h1.3V31.76h2a1.22,1.22,0,0,1,.54.09.94.94,0,0,1,.33.39,1.92,1.92,0,0,1,.19.48q.06.24.12.63t.12.63a3.83,3.83,0,0,0,.2.69.33.33,0,0,0,.3.2h1.22a1.17,1.17,0,0,1-.23-.41A4,4,0,0,1,19.68,33.92Zm-4.6-3.3V28h2.15a1.49,1.49,0,0,1,.95.27,1.07,1.07,0,0,1,.34.88,1.68,1.68,0,0,1-.2.84,1.33,1.33,0,0,1-.5.5,1.39,1.39,0,0,1-.62.16Z"/><rect x="28.14" y="26.8" width="1.3" height="8.07"/><polygon points="38.05 26.8 37.5 26.8 37.5 34.87 38.05 34.87 38.8 34.87 42.8 34.87 42.8 33.7 38.8 33.7 38.8 31.23 42.39 31.23 42.39 30.09 38.8 30.09 38.8 27.97 42.8 27.97 42.8 26.8 38.8 26.8 38.05 26.8"/><polygon points="55.86 31.26 55.86 33.14 55.83 33.14 54.89 31.22 52.56 26.8 50.86 26.8 50.86 34.87 52.11 34.87 52.11 30.42 52.11 28.53 52.14 28.53 53.08 30.45 55.41 34.87 57.11 34.87 57.11 26.8 55.86 26.8 55.86 31.26"/><path d="M70.15,27.24a3.63,3.63,0,0,0-1.82-.44H65.17v8.07h3a3.4,3.4,0,0,0,1.9-.52,3.32,3.32,0,0,0,1.25-1.46,5.19,5.19,0,0,0,.45-2.23,4.67,4.67,0,0,0-.43-2.11A3,3,0,0,0,70.15,27.24ZM69.8,33a2,2,0,0,1-1.55.69H66.47V28h1.78a2.12,2.12,0,0,1,1.58.61,3.06,3.06,0,0,1,.61,2.17A3.28,3.28,0,0,1,69.8,33Z"/><path d="M84.65,31.27a2.3,2.3,0,0,0-.85-.71,10.2,10.2,0,0,0-1.28-.45c-.4-.12-.72-.23-1-.32a1.58,1.58,0,0,1-.57-.4.92.92,0,0,1-.23-.65.75.75,0,0,1,.36-.69,2.18,2.18,0,0,1,1.09-.21A2.11,2.11,0,0,1,83,28a1,1,0,0,1,.48.41,1.73,1.73,0,0,1,.19.76L84.92,29a2.25,2.25,0,0,0-.79-1.69,2.86,2.86,0,0,0-1.9-.59,3.71,3.71,0,0,0-1.42.25,2.13,2.13,0,0,0-1,.76A2.19,2.19,0,0,0,79.47,29a1.9,1.9,0,0,0,.33,1.18,2,2,0,0,0,.79.64,8.71,8.71,0,0,0,1.25.41,10.1,10.1,0,0,1,1,.32,1.64,1.64,0,0,1,.62.43,1.08,1.08,0,0,1,.25.75.94.94,0,0,1-.42.87,2.14,2.14,0,0,1-1.17.26,2.33,2.33,0,0,1-.93-.14.89.89,0,0,1-.47-.42,1.85,1.85,0,0,1-.16-.7l-1.29.17A2.25,2.25,0,0,0,80,34.41a3.09,3.09,0,0,0,2,.59,3.6,3.6,0,0,0,2.13-.59A2.12,2.12,0,0,0,85,32.55,2.16,2.16,0,0,0,84.65,31.27Z"/></g></g></svg>